<svg xmlns="http://www.w3.org/2000/svg" width="512" height="512" viewBox="0 0 512 512">
  <defs>
    <linearGradient id="bg" x1="0%" y1="0%" x2="100%" y2="100%">
      <stop offset="0%" style="stop-color:#1877F2"/>
      <stop offset="100%" style="stop-color:#1E90FF"/>
    </linearGradient>
  </defs>
  <rect width="512" height="512" rx="96" fill="url(#bg)"/>

  <!-- Outer chat bubble (depth) -->
  <path d="M128 196c0-44.2 35.8-80 80-80h96c44.2 0 80 35.8 80 80v80c0 44.2-35.8 80-80 80h-48l-64 48v-48h-16c-44.2 0-80-35.8-80-80v-80z" fill="white" opacity="0.15"/>

  <!-- Inner chat bubble -->
  <path d="M160 208c0-35.3 28.7-64 64-64h64c35.3 0 64 28.7 64 64v56c0 35.3-28.7 64-64 64h-32l-48 36v-36h-16c-35.3 0-64-28.7-64-64v-56z" fill="white"/>

  <!-- Translation arrows -->
  <g transform="translate(224, 234)" stroke="#1877F2" stroke-width="5.5" stroke-linecap="round" stroke-linejoin="round" fill="none">
    <path d="M4 0L0 8L4 16"/>
    <path d="M36 0L40 8L36 16"/>
    <line x1="8" y1="8" x2="32" y2="8"/>
  </g>
</svg>
